<svg xmlns="http://www.w3.org/2000/svg" width="800" height="572.62" viewBox="0 0 800 572.62" xmlns:xlink="http://www.w3.org/1999/xlink" role="img" artist="Katerina Limpitsouni" source="https://undraw.co/"><g transform="translate(-28.583 -435)"><path d="M878.163,227.233c-1-.664-2-1.294-3-1.936a435.517,435.517,0,0,0-91.985-44.589l-7.491,103.335H728.2V165.624c-2.989-.618-6-1.2-9.014-1.752V284.043H662.753A117.137,117.137,0,0,1,545.616,166.906h0c-3.024.653-6.025,1.352-9.026,2.1V284.043H490.627l-7.136-98.536a436.225,436.225,0,0,0-93.851,49.858c-.5.344-1.008.7-1.5,1.042-2.531,1.775-5.028,3.585-7.514,5.418V636.049H516.089l-2.394-33.158L500.523,420.835H765.779L752.607,602.891l-2.394,33.158H884.176V231.219Q881.186,229.192,878.163,227.233ZM536.591,390.769H498.347l-7.067-97.7h45.311Zm182.595,0H654.953v-1.936a7.078,7.078,0,0,0-7.09-7.078H619.939a7.075,7.075,0,0,0-7.078,7.078v1.936H545.616v-97.7H719.186Zm9.014,0v-97.7h46.834l-7.067,97.7Z" transform="translate(-214.08 271.129)" fill="#e6e6e6"/><path d="M206.59,598.162a316.829,316.829,0,0,0,28.591,33.158L978,632.466a316.84,316.84,0,0,0,28.591-33.159Z" transform="translate(-178.007 334.261)" fill="#f2f2f2"/><path d="M702.02,506.061v98.163a4.721,4.721,0,0,0,4.718,4.718H852.2a4.722,4.722,0,0,0,4.718-4.718V506.061a4.724,4.724,0,0,0-4.718-4.713H706.738a4.724,4.724,0,0,0-4.718,4.713Z" transform="translate(-167.359 320.188)" fill="#3f3d56"/><path d="M705,506.849v95.73a2.526,2.526,0,0,0,2.521,2.521h143.04a2.526,2.526,0,0,0,2.521-2.521v-95.73a2.527,2.527,0,0,0-2.521-2.527H707.521A2.527,2.527,0,0,0,705,506.849Z" transform="translate(-166.926 320.62)" fill="#6c63ff"/><path d="M699.446,609.93A2.829,2.829,0,0,0,701.672,611H857.433a2.866,2.866,0,0,0,2.8-3.454l-2.418-11.485a2.871,2.871,0,0,0-1.785-2.082,2.775,2.775,0,0,0-1.017-.192H704.08a2.776,2.776,0,0,0-1.017.192,2.871,2.871,0,0,0-1.785,2.082l-2.418,11.485a2.864,2.864,0,0,0,.585,2.389Z" transform="translate(-167.827 333.625)" fill="#2f2e41"/><rect width="4.797" height="2.878" rx="0.488" transform="translate(542.16 932.354) rotate(180)" fill="#3f3d56"/><rect width="4.797" height="2.878" rx="0.488" transform="translate(542.274 937.151) rotate(180)" fill="#3f3d56"/><path d="M.559,0H37.82a.559.559,0,0,1,.559.559v1.76a.559.559,0,0,1-.559.559H.559A.559.559,0,0,1,0,2.319V.559A.559.559,0,0,1,.559,0Z" transform="translate(640.14 942.909) rotate(180)" fill="#3f3d56"/><rect width="6.833" height="3.576" rx="1.561" transform="translate(557.798 845.887)" fill="#fff"/><rect width="6.833" height="3.576" rx="1.561" transform="translate(595.05 845.887)" fill="#fff"/><rect width="6.833" height="3.576" rx="1.561" transform="translate(605.604 845.887)" fill="#fff"/><rect width="23.819" height="3.576" rx="1.561" transform="translate(567.931 845.588)" fill="#fff"/><rect width="23.819" height="3.576" rx="1.561" transform="translate(617.599 845.588)" fill="#fff"/><rect width="6.833" height="3.576" rx="1.561" transform="translate(567.732 853.957)" fill="#fff"/><rect width="6.833" height="3.576" rx="1.561" transform="translate(604.983 853.957)" fill="#fff"/><rect width="6.833" height="3.576" rx="1.561" transform="translate(615.538 853.957)" fill="#fff"/><rect width="23.819" height="3.576" rx="1.561" transform="translate(577.865 853.659)" fill="#fff"/><rect width="23.819" height="3.576" rx="1.561" transform="translate(627.532 853.659)" fill="#fff"/><rect width="6.833" height="3.576" rx="1.561" transform="translate(577.666 862.029)" fill="#fff"/><rect width="6.833" height="3.576" rx="1.561" transform="translate(614.916 862.029)" fill="#fff"/><rect width="6.833" height="3.576" rx="1.561" transform="translate(625.471 862.029)" fill="#fff"/><rect width="23.819" height="3.576" rx="1.561" transform="translate(587.798 861.73)" fill="#fff"/><rect width="23.819" height="3.576" rx="1.561" transform="translate(637.466 861.73)" fill="#fff"/><rect width="6.833" height="3.576" rx="1.561" transform="translate(587.599 870.099)" fill="#fff"/><rect width="6.833" height="3.576" rx="1.561" transform="translate(624.85 870.099)" fill="#fff"/><rect width="6.833" height="3.576" rx="1.561" transform="translate(635.404 870.099)" fill="#fff"/><rect width="23.819" height="3.576" rx="1.561" transform="translate(597.732 869.801)" fill="#fff"/><rect width="6.833" height="3.576" rx="1.561" transform="translate(595.05 902.193)" fill="#fff"/><rect width="6.833" height="3.576" rx="1.561" transform="translate(605.604 902.193)" fill="#fff"/><rect width="23.819" height="3.576" rx="1.561" transform="translate(617.599 902.491)" fill="#fff"/><rect width="6.833" height="3.576" rx="1.561" transform="translate(557.798 902.193)" fill="#fff"/><rect width="23.819" height="3.576" rx="1.561" transform="translate(567.931 902.491)" fill="#fff"/><rect width="6.833" height="3.576" rx="1.561" transform="translate(567.732 894.122)" fill="#fff"/><rect width="6.833" height="3.576" rx="1.561" transform="translate(604.983 894.122)" fill="#fff"/><rect width="6.833" height="3.576" rx="1.561" transform="translate(615.538 894.122)" fill="#fff"/><rect width="23.819" height="3.576" rx="1.561" transform="translate(577.865 894.42)" fill="#fff"/><rect width="6.833" height="3.576" rx="1.561" transform="translate(577.666 886.051)" fill="#fff"/><rect width="6.833" height="3.576" rx="1.561" transform="translate(614.916 886.051)" fill="#fff"/><rect width="6.833" height="3.576" rx="1.561" transform="translate(625.471 886.051)" fill="#fff"/><rect width="23.819" height="3.576" rx="1.561" transform="translate(587.798 886.349)" fill="#fff"/><rect width="6.833" height="3.576" rx="1.561" transform="translate(587.599 877.98)" fill="#fff"/><rect width="6.833" height="3.576" rx="1.561" transform="translate(624.85 877.98)" fill="#fff"/><rect width="6.833" height="3.576" rx="1.561" transform="translate(635.404 877.98)" fill="#fff"/><rect width="23.819" height="3.576" rx="1.561" transform="translate(597.732 878.278)" fill="#fff"/><path d="M398.28,501.855V619.324h82.295V501.855a3.949,3.949,0,0,0-2.783-3.78,3.636,3.636,0,0,0-1.18-.183H402.254A3.967,3.967,0,0,0,398.28,501.855ZM430.4,542.218a8.785,8.785,0,1,1,17.57,0v13.63a8.785,8.785,0,1,1-17.57,0Z" transform="translate(-211.513 319.685)" fill="#2f2e41"/><path d="M398.06,600.632V611.96a2.229,2.229,0,0,0,2.211,2.222h78.378a2.222,2.222,0,0,0,2.211-2.222V600.632Z" transform="translate(-211.545 334.62)" fill="#3f3d56"/><path d="M285.25,348.139V562.621a10.316,10.316,0,0,0,10.308,10.308H613.4a10.316,10.316,0,0,0,10.308-10.308V348.139a10.322,10.322,0,0,0-10.308-10.3H295.558a10.321,10.321,0,0,0-10.308,10.3Z" transform="translate(-227.944 296.419)" fill="#3f3d56"/><path d="M291.76,349.863V559.03a5.519,5.519,0,0,0,5.509,5.509H609.806a5.519,5.519,0,0,0,5.509-5.509V349.863a5.521,5.521,0,0,0-5.509-5.521H297.269A5.521,5.521,0,0,0,291.76,349.863Z" transform="translate(-226.998 297.364)" fill="#fff"/><path d="M342.5,614.239a3.377,3.377,0,0,0,2.657,1.271H531.094a3.422,3.422,0,0,0,3.344-4.123l-2.886-13.71a3.428,3.428,0,0,0-2.13-2.485,3.313,3.313,0,0,0-1.214-.229H348.03a3.316,3.316,0,0,0-1.214.229,3.427,3.427,0,0,0-2.13,2.485l-2.886,13.71A3.419,3.419,0,0,0,342.5,614.239Z" transform="translate(-219.734 333.796)" fill="#2f2e41"/><path d="M597.848,369.794H305.409a1.163,1.163,0,1,1,0-2.326h292.44a1.163,1.163,0,1,1,0,2.326Z" transform="translate(-225.183 300.726)" fill="#3f3d56"/><ellipse cx="6.815" cy="6.967" rx="6.815" ry="6.967" transform="translate(93.317 648.321)" fill="#3f3d56"/><ellipse cx="6.815" cy="6.967" rx="6.815" ry="6.967" transform="translate(116.861 648.321)" fill="#3f3d56"/><ellipse cx="6.815" cy="6.967" rx="6.815" ry="6.967" transform="translate(140.405 648.321)" fill="#3f3d56"/><path d="M0,0H138.582l2.729,9.163H0Z" transform="translate(544.477 928.654)" fill="#3f3d56"/><path d="M550.486,351.622H533.763a1.266,1.266,0,0,0,0,2.531h16.722a1.266,1.266,0,1,0,0-2.531Z" transform="translate(-191.998 298.422)" fill="#3f3d56"/><path d="M550.489,355.772H533.767a1.266,1.266,0,1,0,0,2.532h16.722a1.266,1.266,0,1,0,0-2.531Z" transform="translate(-192.002 299.025)" fill="#3f3d56"/><path d="M550.486,359.922H533.763a1.266,1.266,0,0,0,0,2.531h16.722a1.266,1.266,0,1,0,0-2.531Z" transform="translate(-191.998 299.629)" fill="#3f3d56"/><g transform="translate(733.68 878.293)"><path d="M900.245,605.468a6.468,6.468,0,0,0,6.233,4.366l26.706-.687a6.38,6.38,0,0,0,6.029-4.695l3.779-40.411a9.873,9.873,0,0,0,4.272.878,9.739,9.739,0,0,0-.489-19.472,8.249,8.249,0,0,0-1.75.182,6.6,6.6,0,0,0-4.913-2.12l-41.079,1.061a5.89,5.89,0,0,0-1.013.126,6.416,6.416,0,0,0-4.912,8.331Zm43.522-44.17,2.689-9.63a6.557,6.557,0,0,0,.021-3.4c.13,0,.246-.062.376-.062a6.966,6.966,0,1,1,.326,13.929A6.556,6.556,0,0,1,943.767,561.3Z" transform="translate(-892.779 -543.508)" fill="#e6e6e6"/><path d="M897.978,544.7c.875,5,10.715,8.522,22.546,7.911,10.88-.5,19.776-4.322,21.406-8.849a6.072,6.072,0,0,0-1.859-.248l-41.079,1.061a5.9,5.9,0,0,0-1.013.126Z" transform="translate(-892.737 -543.508)" fill="#d6d6e3"/></g><g transform="translate(250.837 684.649)"><path d="M608.259,538.318s-88.873,10.718-80.387,0c3.073-3.877,3.921-15.363,3.751-28.448-.054-3.975-.2-8.092-.4-12.192-.983-19.65-3.349-38.854-3.349-38.854s77.708-36.621,68.776-7.592c-3.573,11.728-2.4,28.2.313,43.659.795,4.511,1.715,8.932,2.68,13.13A307.827,307.827,0,0,0,608.259,538.318Z" transform="translate(-399.458 -372.022)" fill="#ed9da0"/><path d="M424.283,703.042v-.75l156.862-1.706,95.572-.893h.268l-.1,1.322.134-1.322h.17v-.152l1.224-12.013.464-4.546.143-1.42.125-1.188,5.52-18.409,5.52-18.382,4.645-15.479,7.092-23.652s-4.019-9.379-6.252-12.058-11-21.856-11-21.856-12.523-17.292-20.856-19.382c-3.492-.893-10.388-2.081-17.712-3.573-2.742-.554-23.758-6.624-25.009-7.467-6.565-4.814-23.018-5.359-23.652-5.359h0a.382.382,0,0,1,0-.063v-.08a9.146,9.146,0,0,0,0-1.125,7.175,7.175,0,0,0-.08-1.25,1.127,1.127,0,0,0-.063-.447c-.045-.322-.1-.661-.179-1.018a4.473,4.473,0,0,0-.107-.473,15.378,15.378,0,0,0-1.117-3.117c-.063-.143-.143-.295-.214-.438a16.294,16.294,0,0,0-1.518-2.349c-.116-.152-.241-.313-.375-.464a17.487,17.487,0,0,0-2.43-2.358c-.241-.188-.491-.384-.75-.563a4.172,4.172,0,0,0-.456-.322l-.795-.518-.741-.429c-.652-.357-1.34-.706-2.09-1.036-.232-.107-.482-.205-.732-.3s-.643-.25-.974-.375h-.054l-.67-.268c-.509-.17-1.027-.322-1.572-.473l-.831-.214-.893-.205-.893-.188c-.893-.179-1.849-.339-2.849-.464l-1.018-.125-1.045-.107-1.081-.089-1.536-.089-1.786-.063a111.389,111.389,0,0,0-23.448,2.494,64.549,64.549,0,0,0-16.3-1.5h-.777l-.893.054H528.6l-1.152.107a8.563,8.563,0,0,0-1.161.134c-.384.054-.786.1-1.17.161l-.589.1c-.581.1-1.17.205-1.786.33q-.295.054-.589.134c-.777.17-1.554.375-2.322.607-.384.107-.768.232-1.152.366-.2.054-.384.125-.572.2l-.572.205-.563.223-.67.268c-.339.143-.67.295-1,.456-.188.08-.375.17-.554.268s-.366.179-.536.277a24.783,24.783,0,0,0-5.547,3.912l-.456.438-.447.456c-.152.152-.295.313-.438.473a21.268,21.268,0,0,0-1.626,2.01c-.143.188-.277.375-.411.572a23.843,23.843,0,0,0-1.536,2.608c-.116.214-.223.438-.33.652a29.205,29.205,0,0,0-1.786,4.689q-.25.893-.456,1.786s-18.909,8.343-34.593,14.381c-4.171,1.608-8.1,3.064-11.388,4.162-.956.321-1.849.616-2.68.893a23.849,23.849,0,0,1-5.582,1.286,17.553,17.553,0,0,0-2.68.25c-7.208,1.17-19.561,6.252-20.91,11.353a3.294,3.294,0,0,0-.089,1.25s-29.377,90.954-29.7,92.624c-1.3,6.806-4.2,19.766-5.627,25.009-1.063,3.912-2.608,9.271-3.671,12.951a1.253,1.253,0,0,1-.089.313l40.042-.393v.75h.125Z" transform="translate(-384.17 -380.107)" fill="#6c63ff"/><path d="M611.55,533.527c-25.9,4.77-74.671,3.742-95.75,3.019,7.726-27.689,45.4-18.275,45.4-18.275C607.835,508.964,611.407,528.275,611.55,533.527Z" transform="translate(-398.229 -380.111)" fill="#6c63ff"/><path d="M776.94,672.225s30.511-4.689,31.11,8.709-15.559,22.758-15.559,22.758Z" transform="translate(-426.121 -396.736)" fill="#ed9da0"/><path d="M791.874,692.2s-.795,1.893-2.26,4.636a61.634,61.634,0,0,1-8.039,11.763l-.241.259h-1.447l-51.573.473h-1.233l-.152-.179-10-11.87-3.769-4.475-.152-.188-.321-.375-.179-.214-.232-.277-7.333-8.7,2.68-11.165,4.564-18.811.116-.456.893-3.573.634-2.68,2.126-8.735,7.288-30.056,12.951,6.7L749.85,638.4l7.333,12.951H761.2c.759,0,2.5,1.465,4.252,3.153.625.6,1.25,1.233,1.786,1.786,1.59,1.643,2.849,3.055,2.849,3.055s6.511.143,8.262,5.27a6.249,6.249,0,0,1,.223.759,35.994,35.994,0,0,0,2.26,5.859c1.152,2.51,2.6,5.359,4.064,8.208,2.724,5.225,5.493,10.2,6.511,12l.125.223Z" transform="translate(-418.431 -389.916)" fill="#6c63ff"/><path d="M429.08,717.336v-.75l156.862-1.706,95.572-.893h.268v-.152l.893-12,.384-5.359,1.465-20.2,1.152-15.988v-.393a9.484,9.484,0,0,0-.1-2.206.269.269,0,0,0,0-.089,9.282,9.282,0,0,0-1.786-4.144,9.414,9.414,0,0,0-8.414-3.573c-10.817,1.108-21.74,1.992-32.673,2.68-1.492.107-2.983.2-4.466.277-70.509,4.189-140.383.795-178.192-1.786l-2.68-.2c-6.547-.465-12.022-.893-16.238-1.259a9.414,9.414,0,0,0-10.039,7.619,9.827,9.827,0,0,0-.161,1.465l-.607,19.793-.831,25.072-.393,12.826v1Z" transform="translate(-388.967 -394.4)" fill="#090814"/><ellipse cx="51.737" cy="51.737" rx="51.737" ry="51.737" transform="translate(105.21 24.575)" fill="#ed9da0"/><path d="M670.988,405.522a4.365,4.365,0,0,0-3.123-1.382l.778-2.16a4.1,4.1,0,0,0-4.6-5.457l-2.833.546.267-1.893a4.1,4.1,0,0,0-5.492-4.435,4.373,4.373,0,0,1-3.762-.267,4.466,4.466,0,0,1-2.229-3.031l-.987-4.76-.1-.255c-4.807-8.012-14.049-13.84-25.359-15.977-10.067-1.916-20.389-.94-30.34-.023-3.948.372-8.406.79-12.122,3.065-3.158,1.951-5.829,5.852-5.283,9.788-9.811-3.007-20.331,3-25.544,10.566-6.177,9.01-7.187,20.3-7.35,29.12-.441,20.877,3.867,37.957,12.772,50.775.65.929.813,2.868,2.1,3.518l-.267-.43c1.44.72,2.9,1.881,2.357,3.123-1.567,3.576,8.848,11.483,16.186,14.1,13.388,4.772,31.187,4.366,43.7,2.647l.441-2.961c4.517-.615,7.7-1.788,8.592-3.623,1.579-1.347,2.926-2.554,4.1-3.669l.012-.012c.023-.023.07-.058.093-.081,5.655-5.422,6.967-8.511,7.559-13.213.569-4.61-.441-9.289-1.475-13.5,21.759,3.367-8.569-23.176,11.7-28.308a6.308,6.308,0,0,1,.708-.174c.592-.139,1.184-.279,1.753-.441a30.7,30.7,0,0,0,7.8-3.332c5.666-3.448,7.536-8.023,10.462-13.178a3.978,3.978,0,0,0-.522-4.679Z" transform="translate(-444.113 -365.348)" fill="#090814"/></g><g transform="translate(152.761 713.325)"><path d="M6.872,0H93.92a6.872,6.872,0,1,1,0,13.744H6.872A6.872,6.872,0,0,1,6.872,0Z" transform="translate(22.907 0)" fill="#6c63ff"/><path d="M6.872,0H139.735a6.872,6.872,0,0,1,0,13.744H6.872A6.872,6.872,0,0,1,6.872,0Z" transform="translate(0 32.07)" fill="#e6e6e6"/><path d="M6.872,0H139.735a6.872,6.872,0,0,1,0,13.744H6.872A6.872,6.872,0,0,1,6.872,0Z" transform="translate(0 64.141)" fill="#e6e6e6"/></g></g></svg>